# xmcd CD database file
#
# Track frame offsets:
#	187
#	19367
#	42614
#	61874
#
# Disc length: 1133 seconds
#
# Revision: 0
# Processed by: cddbd v1.5PL3 Copyright (c) Steve Scherf et al.
# Submitted via: CDex 1.51
#
DISCID=32046b04
DTITLE=松たか子 - 真冬のメモリーズ
DYEAR=1900
DGENRE=JPop
TTITLE0=真冬のメモリーズ
TTITLE1=20 Candles
TTITLE2=真冬のメモリーズ Original Karaoke
TTITLE3=20 Candles Original Karaoke
EXTD=
EXTT0=
EXTT1=
EXTT2=
EXTT3=
PLAYORDER=
